<?xml version="1.0" standalone="no"?>
<!DOCTYPE svg PUBLIC "-//W3C//DTD SVG 20010904//EN"
 "http://www.w3.org/TR/2001/REC-SVG-20010904/DTD/svg10.dtd">
<svg version="1.0" xmlns="http://www.w3.org/2000/svg"
 width="200.000000pt" height="200.000000pt" viewBox="0 0 200.000000 200.000000"
 preserveAspectRatio="xMidYMid meet">

<g transform="translate(0.000000,200.000000) scale(0.100000,-0.100000)"
fill="#456aff" stroke="#456aff" stroke-width="10">
<path d="M578 1729 l-418 -242 0 -487 0 -488 412 -238 c227 -131 420 -238 428
-238 9 0 201 107 428 238 l412 239 0 487 0 488 -418 241 c-230 133 -420 241
-423 241 -2 0 -192 -109 -421 -241z m810 -348 c130 -19 194 -76 194 -172 0
-62 -32 -115 -96 -155 -25 -16 -44 -33 -41 -39 40 -104 104 -249 122 -277 14
-23 31 -38 43 -38 14 0 20 -7 20 -23 0 -30 -35 -47 -96 -47 -85 0 -97 17 -139
198 -34 151 -39 162 -70 162 -25 0 -26 3 -23 43 l3 42 41 -2 c37 -1 43 2 67
40 37 56 38 133 3 174 -24 27 -26 28 -133 28 -92 0 -114 -3 -149 -22 -46 -25
-94 -76 -94 -100 0 -21 29 -53 47 -53 16 0 16 -8 2 -49 -13 -36 -11 -36 -49
-16 -41 21 -60 53 -60 103 0 121 103 186 335 211 6 0 38 -3 73 -8z m-537 -48
c39 -39 48 -96 25 -158 -23 -59 -113 -142 -172 -157 l-43 -12 -15 -69 c-9 -38
-16 -75 -16 -81 0 -15 86 -81 139 -107 22 -10 58 -19 80 -19 31 0 43 -5 52
-21 9 -17 7 -25 -13 -46 -67 -74 -131 -62 -234 41 l-71 71 -34 -23 c-28 -20
-44 -23 -86 -20 -64 6 -93 28 -93 74 0 18 3 40 6 49 10 25 59 45 114 45 41 0
50 3 50 18 0 9 3 33 6 53 6 33 3 37 -24 48 -16 7 -42 26 -58 42 -23 24 -29 40
-32 90 -5 68 4 85 42 75 24 -6 25 -9 19 -55 -5 -44 -3 -52 21 -76 15 -15 29
-25 31 -23 2 2 9 41 14 87 19 151 83 216 204 208 49 -3 63 -8 88 -34z m476
-102 c-3 -27 -22 -116 -41 -198 -19 -81 -40 -178 -46 -215 -7 -37 -17 -69 -24
-71 -7 -3 -38 -8 -69 -12 l-57 -7 0 28 c0 16 21 114 46 218 43 177 48 225 30
267 -10 23 32 37 108 38 l59 1 -6 -49z"/>
<path d="M741 1271 c-28 -28 -76 -201 -57 -201 28 0 100 60 122 102 17 33 18
90 2 106 -18 18 -45 15 -67 -7z"/>
<path d="M435 830 c-13 -20 12 -35 42 -24 15 5 27 14 27 19 1 14 -61 18 -69 5z"/>
</g>
</svg>
